<svg clip-rule="evenodd" fill-rule="evenodd" stroke-linejoin="round" stroke-miterlimit="1.41421" viewBox="0 0 404 404" xmlns="http://www.w3.org/2000/svg"><circle cx="201.713" cy="201.687" fill="#fff" r="201.687"/><g fill-rule="nonzero"><path d="m168.585 136.362h-41.805c-4.338 0-7.887 3.549-7.887 7.888v31.55h165.639v-15.775c0-4.338-3.55-7.888-7.888-7.888h-77.298c-3.55 0-7.099-1.183-9.86-3.549l-11.042-8.677c-2.761-2.366-6.31-3.549-9.859-3.549z" fill="#0c499b"/><path d="m142.472 272.198c-3.788 0-6.886-3.099-6.886-6.886v-130.835c0-3.787 3.098-6.886 6.886-6.886h118.376c3.788 0 6.886 3.099 6.887 6.886v130.835c0 3.787-3.099 6.886-6.887 6.886z" fill="#ebeff9"/><path d="m138.472 285.355c-3.788 0-6.886-3.099-6.886-6.887v-130.834c0-3.788 3.098-6.887 6.886-6.887h127.376c3.788.001 6.886 3.1 6.887 6.887v130.834c0 3.788-3.099 6.887-6.887 6.887z" fill="#d9deeb"/><path d="m269.848 156.081c3.788 0 6.886 3.099 6.887 6.886v97.505c0 3.787-3.099 6.886-6.887 6.886h-32.887v.131c0 3.787-3.098 6.885-6.886 6.886h-96.405c-3.787 0-6.886-3.099-6.886-6.886v-104.522c0-3.787 3.099-6.886 6.886-6.886z" fill="#cfd5e4"/><path d="m260.922 127.66v106.734c0 3.787-3.099 6.886-6.886 6.886h-96.405c-3.787 0-6.886-3.099-6.886-6.886v-130.835c0-3.787 3.099-6.886 6.886-6.886h72.304l30.987 30.988z" fill-opacity=".1"/><path d="m257.106 119.48v106.733c0 3.788-3.098 6.887-6.886 6.887h-96.404c-3.788 0-6.887-3.099-6.887-6.887v-130.834c.001-3.788 3.099-6.887 6.887-6.887h72.303v24.102c0 3.787 3.099 6.886 6.886 6.886z" fill="#f5f9fc"/><path d="m257.106 119.48h-24.101c-3.787 0-6.886-3.099-6.886-6.887v-24.101z" fill="#bfd0e0"/><path d="m162.423 133.252h27.544c1.033 0 1.722.688 1.722 1.721s-.689 1.722-1.722 1.722h-27.544c-1.033 0-1.721-.689-1.721-1.722s.688-1.721 1.721-1.721z" fill="#03265a"/><path d="m183.082 153.91h27.544c1.033 0 1.721.688 1.721 1.721s-.688 1.722-1.721 1.722h-27.544c-1.033 0-1.722-.689-1.722-1.722s.689-1.721 1.722-1.721z" fill="#03265a"/><path d="m189.967 164.239h34.431c1.033 0 1.721.689 1.721 1.721 0 1.033-.688 1.722-1.721 1.722h-34.431c-1.033 0-1.721-.689-1.721-1.722 0-1.032.688-1.721 1.721-1.721z" fill="#03265a"/><path d="m162.423 143.581h20.658c1.033 0 1.722.688 1.722 1.721s-.689 1.722-1.722 1.722h-20.658c-1.033 0-1.721-.689-1.721-1.722s.688-1.721 1.721-1.721z" fill="#03265a"/><path d="m217.512 133.252h20.658c1.033 0 1.721.688 1.721 1.721s-.688 1.722-1.721 1.722h-20.658c-1.033 0-1.722-.689-1.722-1.722s.689-1.721 1.722-1.721z" fill="#03265a"/><path d="m196.854 133.252h13.772c1.032 0 1.721.688 1.721 1.721s-.689 1.722-1.721 1.722h-13.772c-1.033 0-1.722-.689-1.722-1.722s.689-1.721 1.722-1.721z" fill="#03265a"/><path d="m227.841 143.581h6.886c1.033 0 1.721.688 1.721 1.721s-.688 1.722-1.721 1.722h-6.886c-1.033 0-1.722-.689-1.722-1.722s.689-1.721 1.722-1.721z" fill="#03265a"/><path d="m231.284 164.239h6.886c1.033 0 1.722.689 1.722 1.721 0 1.033-.689 1.722-1.722 1.722h-6.886c-1.033 0-1.722-.689-1.722-1.722 0-1.032.689-1.721 1.722-1.721z" fill="#03265a"/><path d="m183.082 174.568h13.772c1.032 0 1.721.689 1.721 1.722 0 1.032-.689 1.721-1.721 1.721h-13.772c-1.033 0-1.722-.689-1.722-1.721 0-1.033.689-1.722 1.722-1.722z" fill="#03265a"/><path d="m217.512 153.91h13.772c1.033 0 1.721.688 1.721 1.721s-.688 1.722-1.721 1.722h-13.772c-1.033 0-1.722-.689-1.722-1.722s.689-1.721 1.722-1.721z" fill="#03265a"/><path d="m189.967 143.581h30.988c1.032 0 1.721.688 1.721 1.721s-.689 1.722-1.721 1.722h-30.988c-1.033 0-1.721-.689-1.721-1.722s.688-1.721 1.721-1.721z" fill="#03265a"/><path d="m186.524 119.48h30.988c1.033 0 1.721.688 1.721 1.721s-.688 1.721-1.721 1.721h-30.988c-1.032 0-1.721-.688-1.721-1.721s.689-1.721 1.721-1.721z" fill="#03265a"/><path d="m162.423 153.91h13.772c1.033 0 1.722.688 1.722 1.721s-.689 1.722-1.722 1.722h-13.772c-1.033 0-1.721-.689-1.721-1.722s.688-1.721 1.721-1.721z" fill="#03265a"/><path d="m162.423 164.239h20.658c1.033 0 1.722.689 1.722 1.721 0 1.033-.689 1.722-1.722 1.722h-20.658c-1.033 0-1.721-.689-1.721-1.722 0-1.032.688-1.721 1.721-1.721z" fill="#03265a"/><path d="m162.423 174.568h13.772c1.033 0 1.722.689 1.722 1.722 0 1.032-.689 1.721-1.722 1.721h-13.772c-1.033 0-1.721-.689-1.721-1.721 0-1.033.688-1.722 1.721-1.722z" fill="#03265a"/><path d="m288.476 179.744v98.594c0 4.338-3.55 7.888-7.888 7.888h-157.751c-4.339 0-7.888-3.55-7.888-7.888v-98.594c0-2.367 1.578-3.944 3.944-3.944h165.639c2.366 0 3.944 1.577 3.944 3.944z" fill="#2567c5"/><path d="m280.588 202.618v75.72h-153.808c-2.366 0-3.943 1.578-3.943 3.944s1.577 3.944 3.943 3.944h153.808c4.338 0 7.888-3.55 7.888-7.888v-94.651c-5.127 5.127-7.888 11.832-7.888 18.931z" fill="#1755ab"/><path d="m128.358 179.744c-3.55 0-7.099-1.578-9.465-3.944h118.314c-2.367 2.366-5.916 3.944-9.465 3.944z" fill="#609cf6"/><path d="m276.644 175.8h7.888c-1.578-2.366-3.944-3.944-6.31-3.944h-1.578z" fill="#02275a"/><path d="m126.78 175.8h-7.887c1.577-2.366 3.943-3.944 6.31-3.944h1.577z" fill="#02275a"/><path d="m266.712 266.016v-16.267l-13.827-3.253c-1.22-4.88-3.253-9.76-5.693-13.826l7.319-12.2-11.386-11.387-12.2 7.32c-4.066-2.44-8.946-4.473-13.827-5.693l-3.253-13.827h-16.266l-3.253 13.827c-4.88 1.22-9.76 3.253-13.827 5.693l-12.2-7.32-11.386 11.387 7.32 12.2c-2.44 4.066-4.473 8.946-5.693 13.826l-13.827 3.253v16.267l13.827 3.253c1.22 4.88 3.253 9.76 5.693 13.826l-7.32 12.2 11.387 11.387 12.2-7.32c4.066 2.44 8.946 4.473 13.826 5.693l3.253 13.827h16.267l3.253-13.827c4.88-1.22 9.76-3.253 13.826-5.693l12.2 7.319 11.387-11.386-7.32-12.2c2.44-4.066 4.473-8.946 5.693-13.826zm-65.066-40.26v29.686l-26.026 15.047c-1.627-3.66-2.44-8.133-2.44-12.607 0-16.673 12.606-30.093 28.466-32.126zm4.067 64.659c-10.574 0-19.927-5.286-26.027-13.013l26.027-15.046 26.026 15.047c-6.1 8.133-15.453 13.012-26.026 13.012zm30.092-19.926-26.026-15.047v-30.093c15.86 2.034 28.467 15.86 28.467 32.127 0 4.88-.814 8.946-2.441 13.013z" fill-opacity=".1"/><path d="m262.712 262.016v-16.267l-13.827-3.253c-1.22-4.88-3.253-9.76-5.693-13.826l7.319-12.2-11.386-11.387-12.2 7.32c-4.066-2.44-8.946-4.473-13.827-5.693l-3.253-13.827h-16.266l-3.253 13.827c-4.88 1.22-9.76 3.253-13.827 5.693l-12.2-7.32-11.386 11.387 7.32 12.2c-2.44 4.066-4.473 8.946-5.693 13.826l-13.827 3.253v16.267l13.827 3.253c1.22 4.88 3.253 9.76 5.693 13.826l-7.32 12.2 11.387 11.387 12.2-7.32c4.066 2.44 8.946 4.473 13.826 5.693l3.253 13.827h16.267l3.253-13.827c4.88-1.22 9.76-3.253 13.826-5.693l12.2 7.319 11.387-11.386-7.32-12.2c2.44-4.066 4.473-8.946 5.693-13.826zm-65.066-40.26v29.686l-26.026 15.047c-1.627-3.66-2.44-8.133-2.44-12.607 0-16.673 12.606-30.093 28.466-32.126zm4.067 64.659c-10.574 0-19.927-5.286-26.027-13.013l26.027-15.046 26.026 15.047c-6.1 8.133-15.453 13.012-26.026 13.012zm30.092-19.926-26.026-15.047v-30.093c15.86 2.034 28.467 15.86 28.467 32.127 0 4.88-.814 8.946-2.441 13.013z" fill="#f6b546"/><path d="m201.713 286.415v4.067c20.333 0 36.599-16.267 36.599-36.6h-4.066c0 17.894-14.64 32.533-32.533 32.533z" fill="#fcca78"/><path d="m201.713 221.35v-4.067c-20.333 0-36.6 16.267-36.6 36.6h4.067c0-17.893 14.64-32.533 32.533-32.533z" fill="#f19920"/></g><circle cx="201.713" cy="253.883" fill="#f6b546" r="8.133"/><path d="m204.966 246.563c.407 1.22.813 2.033.813 3.253 0 4.473-3.66 8.133-8.133 8.133-1.22 0-2.44-.407-3.253-.813 1.22 2.846 4.066 4.88 7.319 4.88 4.474 0 8.134-3.66 8.134-8.133 0-3.254-2.033-6.1-4.88-7.32z" fill="#f19920" fill-rule="nonzero"/><path d="m174.06 264.862-2.44 1.22v.407c.813 1.627 1.627 3.254 2.44 4.474l.407.406c.406.407.813 1.22 1.22 1.627l1.22-.407c-1.221-2.44-2.441-4.88-2.847-7.727z" fill="#f19920" fill-rule="nonzero"/><path d="m197.646 221.756v4.88c2.44-.813 5.287-1.22 8.133-1.22v-3.66c-1.22 0-2.846-.407-4.066-.407-1.22.001-2.847.001-4.067.407z" fill="#f19920" fill-rule="nonzero"/></svg>